<svg width="122px" height="40px" viewBox="0 0 122 40" version="1.1" xmlns="http://www.w3.org/2000/svg"
  xmlns:xlink="http://www.w3.org/1999/xlink">
  <desc>Logo</desc>
  <defs></defs>
  <g id="SignUp-Pages" stroke="none" stroke-width="1" fill="none" fill-rule="evenodd">
    <g id="Logo-Loyout" transform="translate(-30.000000, -17.000000)">
      <g id="Logo" transform="translate(30.000000, 17.000000)">
        <g id="Group">
          <g>
            <g id="Group-3">
              <path
                d="M24.3682377,3.52941176 L17.5823401,3.52941176 C16.8775732,11.4358505 10.4742633,17.7342861 2.43682377,18.4260424 C2.57829344,20.6506329 3.04607273,22.8584629 3.83964533,24.9748714 C4.97708217,28.0075267 6.78314395,30.85226 9.25989589,33.287628 C13.4642301,37.4234365 18.8674423,39.6607245 24.3682377,40 L24.3682377,33.3236887 C18.0361789,32.7782069 12.7176419,28.7526122 10.4024959,23.2033253 C12.9943855,22.0834115 15.4226041,20.4789636 17.5451655,18.3909974 C21.7494997,14.255189 24.0233408,8.94055061 24.3682377,3.52941176"
                id="Fill-2" fill="#04272C" fill-rule="nonzero"></path>
              <path
                d="M6.70153022,0 C10.4021776,0 13.4025307,2.8968432 13.4025307,6.47033251 C13.4025307,10.0438218 10.4021776,12.9411765 6.70153022,12.9411765 C3.00035311,12.9411765 0,10.0438218 0,6.47033251 C0,2.8968432 3.00035311,0 6.70153022,0"
                id="Fill-4" fill="#2EBEFF"></path>
            </g>
          </g>
        </g>
      </g>
    </g>
  </g>
</svg>