<svg width="40px" height="40px" viewBox="0 0 40 40" version="1.1" xmlns="http://www.w3.org/2000/svg" xmlns:xlink="http://www.w3.org/1999/xlink">
    <g id="SignUp-Pages" stroke="none" stroke-width="1" fill="none" fill-rule="evenodd">
        <g id="Tablet" transform="translate(-267.000000, -421.000000)">
            <g id="Add" transform="translate(267.000000, 421.000000)">
                <rect id="Rectangle" fill="#F2F2F2" x="0" y="0" width="40" height="40" rx="8"></rect>
                <g id="_ionicons_svg_ios-add-circle" transform="translate(8.000000, 8.000000)" fill="#2B84FF" fill-rule="nonzero">
                    <path d="M12,0 C5.37115385,0 0,5.37115385 0,12 C0,18.6288462 5.37115385,24 12,24 C18.6288462,24 24,18.6288462 24,12 C24,5.37115385 18.6288462,0 12,0 Z M17.2211538,12.9230769 L12.9230769,12.9230769 L12.9230769,17.2211538 C12.9230769,17.7288462 12.5076923,18.1442308 12,18.1442308 C11.7461538,18.1442308 11.5153846,18.0403846 11.3480769,17.8730769 C11.1807692,17.7057692 11.0769231,17.475 11.0769231,17.2211538 L11.0769231,12.9230769 L6.77884615,12.9230769 C6.525,12.9230769 6.29423077,12.8192308 6.12692308,12.6519231 C5.95961538,12.4846154 5.85576923,12.2538462 5.85576923,12 C5.85576923,11.4923077 6.27115385,11.0769231 6.77884615,11.0769231 L11.0769231,11.0769231 L11.0769231,6.77884615 C11.0769231,6.27115385 11.4923077,5.85576923 12,5.85576923 C12.5076923,5.85576923 12.9230769,6.27115385 12.9230769,6.77884615 L12.9230769,11.0769231 L17.2211538,11.0769231 C17.7288462,11.0769231 18.1442308,11.4923077 18.1442308,12 C18.1442308,12.5076923 17.7288462,12.9230769 17.2211538,12.9230769 Z" id="Shape"></path>
                </g>
            </g>
        </g>
    </g>
</svg>