<svg width="40px" height="40px" viewBox="0 0 40 40" version="1.1" xmlns="http://www.w3.org/2000/svg" xmlns:xlink="http://www.w3.org/1999/xlink">
    <g id="SignUp-Pages" stroke="none" stroke-width="1" fill="none" fill-rule="evenodd">
        <g id="Tablet" transform="translate(-266.000000, -568.000000)">
            <g id="Cash" transform="translate(266.000000, 568.000000)">
                <rect id="Rectangle" fill="#F2F2F2" x="0" y="0" width="40" height="40" rx="8"></rect>
                <g id="_ionicons_svg_ios-cash" transform="translate(5.000000, 8.000000)" fill-rule="nonzero">
                    <path d="M30.03125,18.8152359 L0.96875,18.8152359 C0.4359375,18.8152359 0,19.2450256 0,19.770324 C0,20.2956225 0.4359375,20.7254122 0.96875,20.7254122 L30.03125,20.7254122 C30.5640625,20.7254122 31,20.2956225 31,19.770324 C31,19.2450256 30.5640625,18.8152359 30.03125,18.8152359 Z M30.03125,22.0898238 L0.96875,22.0898238 C0.4359375,22.0898238 0,22.5196134 0,23.0449119 C0,23.5702103 0.4359375,24 0.96875,24 L30.03125,24 C30.5640625,24 31,23.5702103 31,23.0449119 C31,22.5196134 30.5640625,22.0898238 30.03125,22.0898238 Z M28.5712054,0 L2.42879464,0 C1.09330357,0 0,1.07788516 0,2.39454235 L0,14.5241615 C0,15.8408186 1.09330357,16.9187038 2.42879464,16.9187038 L28.5712054,16.9187038 C29.9066964,16.9187038 31,15.8408186 31,14.5241615 L31,2.39454235 C31,1.07788516 29.9066964,0 28.5712054,0 Z M5.67410714,14.7356453 L3.18303571,14.7356453 C2.65022321,14.7356453 2.21428571,14.3058556 2.21428571,13.7805571 C2.21428571,13.2552587 2.65022321,12.825469 3.18303571,12.825469 L5.67410714,12.825469 C6.20691964,12.825469 6.64285714,13.2552587 6.64285714,13.7805571 C6.64285714,14.3058556 6.20691964,14.7356453 5.67410714,14.7356453 Z M5.67410714,4.09323479 L3.18303571,4.09323479 C2.65022321,4.09323479 2.21428571,3.66344514 2.21428571,3.13814667 C2.21428571,2.61284821 2.65022321,2.18305856 3.18303571,2.18305856 L5.67410714,2.18305856 C6.20691964,2.18305856 6.64285714,2.61284821 6.64285714,3.13814667 C6.64285714,3.66344514 6.20691964,4.09323479 5.67410714,4.09323479 Z M15.5,13.9169983 C12.4484375,13.9169983 9.96428571,11.4678795 9.96428571,8.4593519 C9.96428571,5.45082433 12.4484375,3.00170551 15.5,3.00170551 C18.5515625,3.00170551 21.0357143,5.45082433 21.0357143,8.4593519 C21.0357143,11.4678795 18.5515625,13.9169983 15.5,13.9169983 Z M27.8169643,14.7356453 L25.3258929,14.7356453 C24.7930804,14.7356453 24.3571429,14.3058556 24.3571429,13.7805571 C24.3571429,13.2552587 24.7930804,12.825469 25.3258929,12.825469 L27.8169643,12.825469 C28.3497768,12.825469 28.7857143,13.2552587 28.7857143,13.7805571 C28.7857143,14.3058556 28.3497768,14.7356453 27.8169643,14.7356453 Z M27.8169643,4.09323479 L25.3258929,4.09323479 C24.7930804,4.09323479 24.3571429,3.66344514 24.3571429,3.13814667 C24.3571429,2.61284821 24.7930804,2.18305856 25.3258929,2.18305856 L27.8169643,2.18305856 C28.3497768,2.18305856 28.7857143,2.61284821 28.7857143,3.13814667 C28.7857143,3.66344514 28.3497768,4.09323479 27.8169643,4.09323479 Z" id="Shape" fill="#189603"></path>
                    <circle id="Oval" fill="#7ED321" cx="15.5" cy="8.5" r="3.5"></circle>
                </g>
            </g>
        </g>
    </g>
</svg>