<svg width="40px" height="40px" viewBox="0 0 40 40" version="1.1" xmlns="http://www.w3.org/2000/svg" xmlns:xlink="http://www.w3.org/1999/xlink">
    <g id="SignUp-Pages" stroke="none" stroke-width="1" fill="none" fill-rule="evenodd">
        <g id="Tablet" transform="translate(-497.000000, -518.000000)">
            <g id="delete" transform="translate(497.000000, 518.000000)">
                <rect id="Rectangle" fill="#F2F2F2" x="0" y="0" width="40" height="40" rx="8"></rect>
                <g id="_ionicons_svg_ios-trash" transform="translate(11.000000, 9.000000)" fill="#E94747" fill-rule="nonzero">
                    <path d="M0.875362319,3.71014493 L2.24347826,20.5623188 C2.24347826,21.5014493 3.00289855,22.2608696 3.94202899,22.2608696 L12.115942,22.2608696 C13.0550725,22.2608696 13.8144928,21.5014493 13.8144928,20.5623188 L15.1652174,3.71014493 L0.875362319,3.71014493 Z M4.44637681,19.0724638 L4.05797101,5.56521739 L5.13043478,5.56521739 L5.53043478,19.0724638 L4.44637681,19.0724638 Z M8.52173913,19.0724638 L7.47826087,19.0724638 L7.47826087,5.56521739 L8.52173913,5.56521739 L8.52173913,19.0724638 Z M11.5536232,19.0724638 L10.4753623,19.0724638 L10.8695652,5.56521739 L11.942029,5.56521739 L11.5536232,19.0724638 Z M14.2608696,1.62318841 L12.173913,1.62318841 L10.6492754,0.289855072 C10.4347826,0.104347826 10.1623188,0 9.88405797,0 L6.12753623,0 C5.84347826,0 5.56521739,0.104347826 5.35072464,0.289855072 L3.82608696,1.62318841 L1.73913043,1.62318841 C0.71884058,1.62318841 0,2.11014493 0,3.13043478 L16,3.13043478 C16,2.11014493 15.2811594,1.62318841 14.2608696,1.62318841 Z" id="Shape"></path>
                </g>
            </g>
        </g>
    </g>
</svg>