<svg width="40px" height="40px" viewBox="0 0 40 40" version="1.1" xmlns="http://www.w3.org/2000/svg" xmlns:xlink="http://www.w3.org/1999/xlink">
    <g id="SignUp-Pages" stroke="none" stroke-width="1" fill="none" fill-rule="evenodd">
        <g id="Tablet" transform="translate(-267.000000, -660.000000)">
            <g id="Exit" transform="translate(267.000000, 660.000000)">
                <rect id="Rectangle" fill="#F2F2F2" x="0" y="0" width="40" height="40" rx="8"></rect>
                <g id="_ionicons_svg_ios-exit" transform="translate(6.000000, 11.000000)" fill="#FF6262" fill-rule="nonzero">
                    <path d="M5.30769231,2.25140713 L5.30769231,8.2739212 L15.2540865,8.2739212 L12.6444712,5.57786116 C12.3680288,5.29080675 12.3680288,4.82926829 12.65,4.54221388 C12.9319712,4.26078799 13.3853365,4.26078799 13.6673077,4.5478424 L17.4822115,8.48780488 C17.6149038,8.62851782 17.6867788,8.81425891 17.6867788,9 C17.6867788,9.0956848 17.6701923,9.19136961 17.6314904,9.28142589 C17.5983173,9.36585366 17.5430288,9.44465291 17.4822115,9.51219512 L13.6673077,13.4521576 C13.3908654,13.739212 12.9319712,13.7448405 12.65,13.4577861 C12.3680288,13.1763602 12.3625,12.7091932 12.6444712,12.4221388 L15.2540865,9.7260788 L5.30769231,9.7260788 L5.30769231,15.7485929 C5.30769231,16.9868668 6.30288462,18 7.51923077,18 L20.7884615,18 C22.0048077,18 23,16.9868668 23,15.7485929 L23,2.25140713 C23,1.01313321 22.0048077,0 20.7884615,0 L7.51923077,0 C6.30288462,0 5.30769231,1.01313321 5.30769231,2.25140713 Z M0.71875,8.2739212 C0.320673077,8.2739212 0,8.60037523 0,9.00562852 C0,9.4108818 0.320673077,9.73733583 0.71875,9.73733583 L5.30769231,9.73733583 L5.30769231,8.2739212 L0.71875,8.2739212 Z" id="Shape"></path>
                </g>
            </g>
        </g>
    </g>
</svg>