<svg width="40px" height="40px" viewBox="0 0 40 40" version="1.1" xmlns="http://www.w3.org/2000/svg" xmlns:xlink="http://www.w3.org/1999/xlink">
    <g id="SignUp-Pages" stroke="none" stroke-width="1" fill="none" fill-rule="evenodd">
        <g id="Tablet" transform="translate(-267.000000, -518.000000)">
            <g id="History" transform="translate(267.000000, 518.000000)">
                <rect id="Rectangle" fill="#F2F2F2" x="0" y="0" width="40" height="40" rx="8"></rect>
                <g id="_ionicons_svg_ios-car" transform="translate(8.000000, 11.000000)" fill="#139276" fill-rule="nonzero">
                    <path d="M21.2307692,5.31923077 C20.4346154,3.54230769 18.4038462,-1.42108547e-14 15.4615385,-1.42108547e-14 L8.53846154,-1.42108547e-14 C5.59615385,-1.42108547e-14 3.64615385,3.42692308 2.76923077,5.31923077 C1.38461538,6.64615385 0,7.95576923 0,10.2115385 L0,14.5961538 C0,14.8096154 0.15,15 0.357692308,15.0461538 C1.21730769,15.2423077 3.94615385,15.6346154 12,15.6346154 C20.0538462,15.6346154 22.7826923,15.2423077 23.6423077,15.0461538 C23.85,15 24,14.8096154 24,14.5961538 L24,10.2115385 C24,7.96153846 22.7134615,6.57115385 21.2307692,5.31923077 Z M8.19230769,1.38461538 L15.8076923,1.38461538 C18.1442308,1.38461538 19.3846154,4.84615385 19.3846154,5.42307692 L4.61538462,5.42307692 C4.61538462,4.84615385 6.17307692,1.38461538 8.19230769,1.38461538 Z M3.69230769,13.1365385 C2.67115385,13.1365385 1.84615385,12.3115385 1.84615385,11.2903846 C1.84615385,10.2692308 2.67115385,9.44423077 3.69230769,9.44423077 C4.71346154,9.44423077 5.53846154,10.2692308 5.53846154,11.2903846 C5.53846154,12.3057692 4.71346154,13.1365385 3.69230769,13.1365385 Z M16.1538462,11.3076923 C16.1538462,11.8153846 15.7384615,12.2307692 15.2307692,12.2307692 L8.76923077,12.2307692 C8.26153846,12.2307692 7.84615385,11.8153846 7.84615385,11.3076923 C7.84615385,10.8 8.26153846,10.3846154 8.76923077,10.3846154 L15.2307692,10.3846154 C15.7384615,10.3846154 16.1538462,10.8 16.1538462,11.3076923 Z M20.3076923,13.1538462 C19.2865385,13.1538462 18.4615385,12.3288462 18.4615385,11.3076923 C18.4615385,10.2865385 19.2865385,9.46153846 20.3076923,9.46153846 C21.3288462,9.46153846 22.1538462,10.2865385 22.1538462,11.3076923 C22.1538462,12.3288462 21.3288462,13.1538462 20.3076923,13.1538462 Z M6.46153846,16.1538462 C3.69807692,16.1538462 0.923076923,15.8653846 0.923076923,15.8653846 C0.923076923,16.8461538 0.905769231,17.5384615 1.26923077,17.5384615 L6.17307692,17.5384615 C6.53653846,17.5384615 6.46153846,16.7769231 6.46153846,16.1538462 Z M17.5384615,16.1538462 C20.3076923,16.1538462 23.0769231,15.8653846 23.0769231,15.8653846 C23.0769231,16.7884615 23.1923077,17.5384615 22.7884615,17.5384615 L17.8269231,17.5384615 C17.4403846,17.5384615 17.5384615,16.7596154 17.5384615,16.1538462 Z" id="Shape"></path>
                </g>
            </g>
        </g>
    </g>
</svg>