<svg width="40px" height="40px" viewBox="0 0 40 40" version="1.1" xmlns="http://www.w3.org/2000/svg" xmlns:xlink="http://www.w3.org/1999/xlink">
    <g id="SignUp-Pages" stroke="none" stroke-width="1" fill="none" fill-rule="evenodd">
        <g id="Tablet" transform="translate(-267.000000, -710.000000)">
            <g id="Login" transform="translate(267.000000, 710.000000)">
                <rect id="Rectangle" fill="#F2F2F2" x="0" y="0" width="40" height="40" rx="8"></rect>
                <g id="_ionicons_svg_ios-log-in" transform="translate(7.000000, 10.000000)" fill-rule="nonzero">
                    <path d="M21.2795699,0 L4.72043011,0 C3.21827957,0 2,1.17045455 2,2.61363636 C2,3.05113636 2.37258065,3.40909091 2.82795699,3.40909091 C3.28333333,3.40909091 3.65591398,3.05113636 3.65591398,2.61363636 C3.65591398,2.05113636 4.13494624,1.59090909 4.72043011,1.59090909 L21.2795699,1.59090909 C21.8650538,1.59090909 22.344086,2.05113636 22.344086,2.61363636 L22.344086,17.3863636 C22.344086,17.9488636 21.8650538,18.4090909 21.2795699,18.4090909 L4.72043011,18.4090909 C4.13494624,18.4090909 3.65591398,17.9488636 3.65591398,17.3863636 C3.65591398,16.9488636 3.28333333,16.5909091 2.82795699,16.5909091 C2.37258065,16.5909091 2,16.9488636 2,17.3863636 C2,18.8295455 3.21827957,20 4.72043011,20 L21.2795699,20 C22.7817204,20 24,18.8295455 24,17.3863636 L24,2.61363636 C24,1.17045455 22.7817204,0 21.2795699,0 Z" id="Shape" fill="#276EF1"></path>
                    <path d="M9.86262769,14.6013712 C9.55829517,14.9187071 9.55829517,15.4417238 9.86262769,15.7649363 L9.86826347,15.7708129 C10.0204297,15.9177277 10.2176823,16 10.4205706,16 C10.6347305,16 10.8319831,15.9177277 10.9785136,15.7590597 L15.6336738,10.9167483 C15.8760127,10.6640548 16,10.3702253 16,10.0528893 C16,9.74142997 15.8703769,9.44760039 15.6336738,9.20078355 L10.8657978,4.24094025 C10.7192673,4.08814887 10.5220148,4 10.3078549,4 C10.0993308,4 9.89644241,4.08227228 9.74991194,4.24094025 C9.43994364,4.56415279 9.43994364,5.08129285 9.74991194,5.40450539 L13.4244452,9.17727718 L0.789010215,9.17727718 C0.355054597,9.17727718 0,9.54750245 0,10 C0,10.4524976 0.355054597,10.8227228 0.789010215,10.8227228 L13.4469884,10.8227228 L9.86262769,14.6013712 Z" id="Shape" fill="#DD8A02"></path>
                </g>
            </g>
        </g>
    </g>
</svg>