<svg width="40px" height="40px" viewBox="0 0 40 40" version="1.1" xmlns="http://www.w3.org/2000/svg" xmlns:xlink="http://www.w3.org/1999/xlink">
    <g id="SignUp-Pages" stroke="none" stroke-width="1" fill="none" fill-rule="evenodd">
        <g id="Tablet" transform="translate(-267.000000, -614.000000)">
            <g id="Messages" transform="translate(267.000000, 614.000000)">
                <rect id="Rectangle" fill="#F2F2F2" x="0" y="0" width="40" height="40" rx="8"></rect>
                <g id="_ionicons_svg_ios-chatbubbles" transform="translate(9.000000, 8.000000)" fill-rule="nonzero">
                    <path d="M22.1017669,15.9601874 C22.1017669,15.7025761 22.1707917,15.4566745 22.2915852,15.2459016 C22.3260977,15.1814988 22.3721142,15.1229508 22.4123787,15.0644028 C23.413239,13.5421546 23.9999503,11.7213115 23.9999503,9.77751756 C24.0172065,4.3793911 19.5420954,0 14.0086032,0 C9.18261581,0 5.15616624,3.34309133 4.21282662,7.78103044 C4.07477692,8.43091335 4,9.09250585 4,9.78337237 C4,15.1873536 8.30254898,19.6838407 13.8360411,19.6838407 C14.7161079,19.6838407 15.9010345,19.4145199 16.5510185,19.2330211 C17.2010025,19.0515222 17.8452345,18.8114754 18.0120445,18.7470726 C18.1788546,18.6826698 18.3629209,18.647541 18.5469871,18.647541 C18.7540617,18.647541 18.9496321,18.6885246 19.1279463,18.764637 L22.3893704,19.941452 C22.3893704,19.941452 22.5274201,20 22.6137012,20 C22.8667923,20 23.0738669,19.795082 23.0738669,19.5316159 C23.0738669,19.4730679 23.0451065,19.3735363 23.0451065,19.3735363 L22.1017669,15.9601874 Z" id="Shape" fill="#BD10E0"></path>
                    <path d="M15.3149328,19.9215686 C15.1111111,19.9786096 14.8506723,20.0413547 14.5675867,20.1040998 C13.9731069,20.22959 13.2144374,20.3607843 12.6426044,20.3607843 C7.1960368,20.3607843 2.96107573,15.9800357 2.96107573,10.7151515 C2.96107573,10.3386809 3.00070771,9.85953654 3.04600142,9.49447415 C3.07997169,9.24919786 3.11960368,9.00392157 3.17622081,8.76434938 C3.23283793,8.50766488 3.30077849,8.25098039 3.37438075,8 L2.92144374,8.40499109 C1.06440198,10.0363636 0,12.3636364 0,14.7878788 C0,16.45918 0.481245577,18.0677362 1.40410474,19.4652406 C1.53432413,19.6648841 1.6079264,19.8188948 1.58527955,19.9215686 C1.5626327,20.0242424 0.91153574,23.4581105 0.91153574,23.4581105 C0.877565464,23.6235294 0.939844303,23.7889483 1.06440198,23.8973262 C1.14932767,23.9657754 1.2512385,24 1.35314933,24 C1.40976645,24 1.46638358,23.9885918 1.517339,23.9657754 L4.6935598,22.7051693 C4.79547063,22.6652406 4.90304317,22.6424242 5.01627742,22.6424242 C5.01627742,22.6424242 5.15215853,22.631016 5.37296532,22.7165775 C6.44302902,23.1386809 7.62632696,23.4010695 8.80962491,23.4010695 C11.447983,23.4010695 13.9278132,22.2545455 15.6093418,20.2581105 C15.6093418,20.2581105 15.7905166,20.0071301 16,19.7105169 C15.7905166,19.7846702 15.5527247,19.8588235 15.3149328,19.9215686 Z" id="Shape" fill="#9013FE"></path>
                </g>
            </g>
        </g>
    </g>
</svg>