<svg width="40px" height="40px" viewBox="0 0 40 40" version="1.1" xmlns="http://www.w3.org/2000/svg" xmlns:xlink="http://www.w3.org/1999/xlink">
    <g id="SignUp-Pages" stroke="none" stroke-width="1" fill="none" fill-rule="evenodd">
        <g id="Tablet" transform="translate(-496.000000, -568.000000)">
            <g id="pw" transform="translate(496.000000, 568.000000)">
                <rect id="Rectangle" fill="#F2F2F2" x="0" y="0" width="40" height="40" rx="8"></rect>
                <g id="_ionicons_svg_md-finger-print" transform="translate(11.000000, 8.000000)" fill="#5EB500" fill-rule="nonzero">
                    <path d="M0.77109375,9.49375 C0.63984375,9.49375 0.503125,9.4609375 0.3828125,9.38984375 C0.01640625,9.1765625 -0.109375,8.71171875 0.10390625,8.3453125 C1.07734375,6.7046875 4.0359375,2.87109375 10.5,2.87109375 C13.3,2.87109375 15.7554688,3.61484375 17.7953125,5.08046875 C19.4742188,6.28359375 20.4148438,7.6453125 20.8632813,8.3015625 C21.1039063,8.6515625 21.0109375,9.121875 20.6609375,9.3625 C20.3109375,9.59765625 19.8296875,9.51015625 19.5890625,9.16015625 C18.7742188,7.97890625 16.3023438,4.39140625 10.5,4.39140625 C4.834375,4.39140625 2.275,7.69453125 1.43828125,9.1109375 C1.29609375,9.3625 1.0390625,9.49375 0.77109375,9.49375 Z" id="Shape"></path>
                    <path d="M13.7539062,24.5 C13.6882812,24.5 13.628125,24.4945312 13.5625,24.478125 C8.87578125,23.3023437 7.12578125,18.5664062 7.0546875,18.3695312 L7.04375,18.3257812 C7.00546875,18.1890625 6.06484375,14.940625 7.50859375,13.0375 C8.1703125,12.1679687 9.1765625,11.725 10.5054687,11.725 C11.7414062,11.725 12.6328125,12.1132812 13.2453125,12.9171875 C13.7484375,13.5734375 13.9507812,14.3828125 14.1476562,15.1648437 C14.5578125,16.7890625 14.853125,17.6421875 16.559375,17.7296875 C17.3085937,17.7679687 17.8007812,17.325 18.0796875,16.9476562 C18.834375,15.9195312 18.965625,14.240625 18.396875,12.7640625 C17.6640625,10.85 15.071875,7.24609375 10.5,7.24609375 C8.54765625,7.24609375 6.75390625,7.88046875 5.315625,9.07265625 C4.1234375,10.0625 3.17734375,11.4570312 2.7234375,12.8898437 C1.88125,15.5585937 2.9859375,19.753125 2.996875,19.7914062 C3.10625,20.1960937 2.86015625,20.6171875 2.45,20.7210937 C2.03984375,20.8304687 1.61328125,20.584375 1.50390625,20.1796875 C1.4546875,19.9882812 0.2734375,15.5148437 1.246875,12.4304687 C2.3078125,9.0890625 5.578125,5.7203125 10.5,5.7203125 C12.775,5.7203125 14.9242187,6.50234375 16.7179687,7.97890625 C18.1070312,9.12734375 19.2445312,10.6695312 19.8351562,12.2117187 C20.5898437,14.1804687 20.3875,16.3898437 19.3210937,17.8335937 C18.6101562,18.7960937 17.5984375,19.2992187 16.4773437,19.2445312 C13.5570312,19.096875 13.0320312,17.0351562 12.6492187,15.53125 C12.2554687,13.9890625 12.0039062,13.2453125 10.5,13.2453125 C9.67421875,13.2453125 9.09453125,13.475 8.73359375,13.9507812 C8.24140625,14.6015625 8.203125,15.61875 8.2578125,16.3570312 C8.3125,17.128125 8.4765625,17.7515625 8.51484375,17.8773437 C8.63515625,18.1835937 10.1992187,22.0609375 13.9453125,23.0015625 C14.3609375,23.1054687 14.6070312,23.5210937 14.503125,23.9257812 C14.4101562,24.2703125 14.0984375,24.5 13.7539062,24.5 Z" id="Shape"></path>
                    <path d="M7.73828125,24.15 C7.53046875,24.15 7.328125,24.0679688 7.175,23.909375 C5.29921875,21.91875 4.23828125,19.6929688 3.8390625,16.909375 L3.8390625,16.8929688 C3.61484375,15.05 3.94296875,12.4414063 5.55078125,10.6476563 C6.7375,9.32421875 8.40546875,8.6515625 10.5,8.6515625 C12.9773438,8.6515625 14.9242188,9.81640625 16.1382813,12.0148438 C17.01875,13.6117188 17.19375,15.203125 17.1992188,15.26875 C17.2429688,15.6898438 16.93125,16.0617188 16.5101563,16.1054688 C16.0890625,16.1492188 15.70625,15.8429688 15.6625,15.4273438 C15.6625,15.4109375 15.509375,14.04375 14.7601563,12.709375 C13.8195313,11.0304688 12.3867188,10.1773438 10.4945313,10.1773438 C8.859375,10.1773438 7.5796875,10.675 6.69921875,11.659375 C5.43046875,13.0757813 5.184375,15.2578125 5.359375,16.7015625 C5.709375,19.1625 6.64453125,21.1203125 8.29609375,22.8703125 C8.5859375,23.1765625 8.56953125,23.6632813 8.2578125,23.9476563 C8.115625,24.0789063 7.92421875,24.15 7.73828125,24.15 Z" id="Shape"></path>
                    <path d="M16.3789063,21.9570312 C14.7382813,21.9570312 13.34375,21.4976562 12.228125,20.584375 C9.9859375,18.7578125 9.734375,15.7828125 9.7234375,15.6570312 C9.690625,15.2359375 10.0078125,14.8695312 10.434375,14.8367187 C10.8609375,14.8039062 11.2273438,15.115625 11.2601563,15.5367187 C11.265625,15.5804687 11.4898438,18.0140625 13.2179688,19.4140625 C14.240625,20.2398437 15.6078125,20.5679687 17.2921875,20.3765625 C17.7132813,20.3273438 18.0960938,20.628125 18.1453125,21.0492188 C18.1945313,21.4703125 17.8882813,21.8476562 17.4671875,21.8914062 C17.0953125,21.9351562 16.7289063,21.9570312 16.3789063,21.9570312 Z M17.675,1.6734375 C17.0351563,1.25234375 14.765625,0 10.5,0 C6.02109375,0 3.74609375,1.38359375 3.24296875,1.73359375 C3.21015625,1.75546875 3.17734375,1.77734375 3.15,1.8046875 C3.14453125,1.81015625 3.1390625,1.81015625 3.1390625,1.81015625 C2.98046875,1.95234375 2.88203125,2.1546875 2.88203125,2.37890625 C2.88203125,2.8 3.2265625,3.1390625 3.653125,3.1390625 C3.82265625,3.1390625 3.97578125,3.084375 4.1015625,2.996875 L4.09609375,3.00234375 C4.11796875,2.9859375 6.08125,1.52578125 10.5,1.52578125 C14.91875,1.52578125 16.8820313,2.99140625 16.9039063,3.00234375 L16.8984375,2.996875 L16.909375,2.9859375 C17.040625,3.084375 17.1992188,3.1390625 17.3742188,3.1390625 C17.8007813,3.1390625 18.1453125,2.8 18.1453125,2.37890625 C18.1453125,2.06171875 17.9539063,1.78828125 17.675,1.6734375 Z" id="Shape"></path>
                </g>
            </g>
        </g>
    </g>
</svg>