<svg width="40px" height="40px" viewBox="0 0 40 40" version="1.1" xmlns="http://www.w3.org/2000/svg"
    xmlns:xlink="http://www.w3.org/1999/xlink">
    <g id="SignUp-Pages" stroke="none" stroke-width="1" fill="none" fill-rule="evenodd">
        <g id="Tablet" transform="translate(-497.000000, -614.000000)">
            <g id="preferances" transform="translate(497.000000, 614.000000)">
                <rect id="Rectangle" fill="#F2F2F2" x="0" y="0" width="40" height="40" rx="8"></rect>
                <g id="_ionicons_svg_ios-rocket-(1)" transform="translate(8.000000, 8.000000)" fill-rule="nonzero">
                    <path
                        d="M23.8733813,0.379856115 C23.8503597,0.282014388 23.781295,0.207194245 23.6834532,0.184172662 C20.552518,-0.581294964 13.3179856,2.14676259 9.39856115,6.06618705 C8.63309353,6.83165468 8.0057554,7.58561151 7.49352518,8.31654676 C6.28489209,8.20719424 5.07625899,8.29928058 4.04604317,8.74820144 C1.13956835,10.0258993 0.29352518,13.3640288 0.0575539568,14.7971223 C-1.28369537e-15,15.1366906 0.282014388,15.4302158 0.621582734,15.3956835 L5.28920863,14.8834532 C5.29496403,15.3323741 5.32374101,15.6892086 5.35251799,15.9366906 C5.37553957,16.1784173 5.48489209,16.4028777 5.65755396,16.5755396 L7.4647482,18.3827338 C7.63741007,18.5553957 7.8618705,18.6647482 8.10359712,18.6877698 C8.35107914,18.7165468 8.70791367,18.7453237 9.15107914,18.7510791 L8.63884892,23.4129496 C8.60431655,23.752518 8.89784173,24.0345324 9.23741007,23.9769784 C10.6705036,23.7467626 14.0143885,22.9007194 15.2863309,19.9942446 C15.7352518,18.9640288 15.8273381,17.7611511 15.723741,16.5582734 C16.4546763,16.0460432 17.2143885,15.418705 17.9798561,14.6532374 C21.9165468,10.7395683 24.6273381,3.66618705 23.8733813,0.379856115 Z M14.4805755,9.58273381 C13.5194245,8.62158273 13.5194245,7.0676259 14.4805755,6.10647482 C15.4417266,5.14532374 16.9956835,5.14532374 17.9568345,6.10647482 C18.9179856,7.0676259 18.9179856,8.62158273 17.9568345,9.58273381 C16.9956835,10.5438849 15.4417266,10.5438849 14.4805755,9.58273381 Z"
                        id="Shape" fill="#4A4A4A"></path>
                    <path
                        d="M7.3381295,19.1942446 C7.09640288,19.4359712 6.6647482,19.5741007 6.19856115,19.6546763 C5.15107914,19.8330935 4.23597122,18.9179856 4.41438849,17.8705036 C4.49496403,17.4043165 4.62733813,16.9726619 4.86906475,16.7366906 L4.87482014,16.7309353 C5.00719424,16.5985612 4.89784173,16.3798561 4.71366906,16.4028777 C4.14964029,16.4719424 3.5971223,16.7251799 3.16546763,17.1568345 C2.1294964,18.1928058 2.03165468,22.0374101 2.03165468,22.0374101 C2.03165468,22.0374101 5.88201439,21.9395683 6.91798561,20.9035971 C7.35539568,20.4661871 7.6028777,19.9194245 7.67194245,19.3553957 C7.68920863,19.171223 7.4647482,19.0618705 7.3381295,19.1942446 Z"
                        id="Shape" fill="#ED2039"></path>
                </g>
            </g>
        </g>
    </g>
</svg>