<svg width="40px" height="40px" viewBox="0 0 40 40" version="1.1" xmlns="http://www.w3.org/2000/svg" xmlns:xlink="http://www.w3.org/1999/xlink">
    <g id="SignUp-Pages" stroke="none" stroke-width="1" fill="none" fill-rule="evenodd">
        <g id="Tablet" transform="translate(-266.000000, -469.000000)">
            <g id="Search" transform="translate(266.000000, 469.000000)">
                <rect id="Rectangle" fill="#F2F2F2" x="0" y="0" width="40" height="40" rx="8"></rect>
                <g id="_ionicons_svg_ios-search" transform="translate(10.000000, 10.000000)" fill="#F2A611" fill-rule="nonzero">
                    <path d="M19.7653837,18.5524603 L14.2029516,12.9393387 C15.29148,11.5751106 15.947722,9.84639417 15.947722,7.96667534 C15.947722,3.56677948 12.3800572,0 7.973861,0 C3.56766478,0 0,3.57198646 0,7.97188232 C0,12.3717782 3.56766478,15.9385577 7.973861,15.9385577 C9.88008773,15.9385577 11.6248581,15.2720646 12.9998413,14.1577714 L18.5258155,19.7344442 C18.6924802,19.9114814 18.921644,20 19.1455996,20 C19.3591387,20 19.5726777,19.9218953 19.7341341,19.765686 C20.0778799,19.4376464 20.0882964,18.8961208 19.7653837,18.5524603 Z M7.973861,14.2254621 C6.3020064,14.2254621 4.72910894,13.57459 3.5468317,12.3926061 C2.36455447,11.2106222 1.71352075,9.63811507 1.71352075,7.97188232 C1.71352075,6.30044259 2.36455447,4.72793543 3.5468317,3.55115855 C4.72910894,2.36917469 6.3020064,1.71830253 7.973861,1.71830253 C9.64571559,1.71830253 11.2186131,2.36917469 12.4008903,3.55115855 C13.5831675,4.73314241 14.2342012,6.30564957 14.2342012,7.97188232 C14.2342012,9.64332205 13.5831675,11.2158292 12.4008903,12.3926061 C11.2186131,13.57459 9.64571559,14.2254621 7.973861,14.2254621 Z" id="Shape"></path>
                </g>
            </g>
        </g>
    </g>
</svg>