<svg width="40px" height="40px" viewBox="0 0 40 40" version="1.1" xmlns="http://www.w3.org/2000/svg" xmlns:xlink="http://www.w3.org/1999/xlink">
    <g id="SignUp-Pages" stroke="none" stroke-width="1" fill="none" fill-rule="evenodd">
        <g id="Tablet" transform="translate(-357.000000, -670.000000)">
            <g id="SignUp" transform="translate(357.000000, 670.000000)">
                <rect id="Rectangle" fill="#F2F2F2" x="0" y="0" width="40" height="40" rx="8"></rect>
                <g id="Group-2" transform="translate(12.000000, 6.000000)">
                    <g id="Group">
                        <g id="Group-3">
                            <path d="M16.5704016,2.47058824 L11.9559912,2.47058824 C11.4767498,8.00509536 7.12249906,12.4140003 1.65704016,12.8982296 C1.75323954,14.4554431 2.07132946,16.000924 2.61095882,17.48241 C3.38441588,19.6052687 4.61253788,21.596582 6.29672921,23.3013396 C9.15567646,26.1964056 12.8298608,27.7625072 16.5704016,28 L16.5704016,23.3265821 C12.2646017,22.9447449 8.64799652,20.1268285 7.07369719,16.2423277 C8.83618217,15.458388 10.4873708,14.3352745 11.9307126,12.8736982 C14.7896598,9.97863227 16.3358717,6.25838543 16.5704016,2.47058824" id="Fill-2" fill="#04272C" fill-rule="nonzero"></path>
                            <path d="M4.55704055,0 C7.07348077,0 9.11372089,2.02779024 9.11372089,4.52923276 C9.11372089,7.03067527 7.07348077,9.05882353 4.55704055,9.05882353 C2.04024011,9.05882353 0,7.03067527 0,4.52923276 C0,2.02779024 2.04024011,0 4.55704055,0" id="Fill-4" fill="#2EBEFF"></path>
                        </g>
                    </g>
                </g>
            </g>
        </g>
    </g>
</svg>