<svg width="40px" height="40px" viewBox="0 0 40 40" version="1.1" xmlns="http://www.w3.org/2000/svg" xmlns:xlink="http://www.w3.org/1999/xlink">
    <g id="SignUp-Pages" stroke="none" stroke-width="1" fill="none" fill-rule="evenodd">
        <g id="Tablet" transform="translate(-496.000000, -469.000000)">
            <g id="img" transform="translate(496.000000, 469.000000)">
                <rect id="Rectangle" fill="#F2F2F2" x="0" y="0" width="40" height="40" rx="8"></rect>
                <g id="_ionicons_svg_ios-images" transform="translate(8.000000, 8.000000)" fill-rule="nonzero">
                    <path d="M12.336,8.97066667 C12.2506667,8.82133333 12.0373333,8.8 11.9253333,8.93333333 L7.024,15.4506667 C6.89066667,15.6053333 6.992,15.8453333 7.19466667,15.8613333 L15.7866667,16.608 C15.9893333,16.624 16.128,16.4053333 16.0266667,16.2293333 L12.336,8.97066667 Z M17.9306667,12.432 C17.8453333,12.2826667 17.632,12.2613333 17.52,12.3946667 L16.1973333,13.7333333 C16.128061,13.8138762 16.1173605,13.9294406 16.1706667,14.0213333 L17.5253333,16.6613333 C17.568,16.7306667 17.6373333,16.7786667 17.7226667,16.784 L20.1173333,16.992 C20.32,17.008 20.4586667,16.7893333 20.3573333,16.6133333 L17.9306667,12.432 Z M18.512,10.3146667 C19.1093333,10.3093333 19.6266667,9.872 19.7386667,9.29066667 C19.888,8.50133333 19.28,7.78133333 18.4746667,7.792 C17.8773333,7.79733333 17.36,8.23466667 17.248,8.816 C17.0986667,9.60533333 17.7066667,10.3253333 18.512,10.3146667 Z" id="Shape" fill="#6A5555"></path>
                    <path d="M22.624,5.24266667 L19.1146667,4.93866667 L18.7893333,1.36533333 C18.72,0.570666667 18.016,-0.016 17.216,0.0586666667 L1.37066667,1.488 C0.576,1.55733333 -0.0106666667,2.26133333 0.0586666667,3.056 L1.488,18.8693333 C1.55733333,19.664 2.26133333,20.2506667 3.06133333,20.176 L3.89866667,20.1013333 L3.81866667,20.992 C3.74933333,21.7866667 4.336,22.4853333 5.136,22.5546667 L20.992,23.936 C21.7866667,24.0053333 22.4906667,23.4186667 22.56,22.624 L23.9466667,6.80533333 C24.0106667,6.016 23.424,5.312 22.624,5.24266667 Z M3.01866667,14.384 C2.82133333,14.4 2.64533333,14.256 2.624,14.0586667 L1.664,3.392 C1.648,3.19466667 1.792,3.01866667 1.98933333,3.00266667 L16.88,1.664 C17.0773333,1.648 17.2533333,1.792 17.2746667,1.98933333 L17.5306667,4.80533333 L6.77333333,3.86133333 C5.97866667,3.792 5.27466667,4.37866667 5.20533333,5.17333333 L4.41066667,14.256 L3.01866667,14.384 Z M22.336,7.152 L21.4026667,17.8186667 C21.3866667,18.016 21.2106667,18.1653333 21.0133333,18.1493333 L20.0213333,18.064 L6.11733333,16.8533333 C5.92,16.8373333 5.77066667,16.6613333 5.78666667,16.464 L5.98933333,14.1226667 L6.72,5.79733333 C6.736,5.6 6.912,5.45066667 7.10933333,5.46666667 L17.6693333,6.38933333 L19.2533333,6.528 L22.0053333,6.768 C22.208,6.77866667 22.3573333,6.95466667 22.336,7.152 Z" id="Shape" fill="#4A90E2"></path>
                </g>
            </g>
        </g>
    </g>
</svg>