<svg width="40px" height="40px" viewBox="0 0 40 40" version="1.1" xmlns="http://www.w3.org/2000/svg" xmlns:xlink="http://www.w3.org/1999/xlink">
    <g id="SignUp-Pages" stroke="none" stroke-width="1" fill="none" fill-rule="evenodd">
        <g id="Tablet" transform="translate(-497.000000, -421.000000)">
            <g id="info" transform="translate(497.000000, 421.000000)">
                <rect id="Rectangle" fill="#F2F2F2" x="0" y="0" width="40" height="40" rx="8"></rect>
                <g id="_ionicons_svg_ios-information-circle-outline-(1)" transform="translate(8.000000, 8.000000)" fill-rule="nonzero">
                    <path d="M10.8115385,7.16538462 C10.8115385,6.50769231 11.3480769,6.01730769 11.9942308,6.01730769 C12.6519231,6.01730769 13.1884615,6.50769231 13.1884615,7.16538462 C13.1884615,7.82307692 12.6519231,8.31923077 11.9942308,8.31923077 C11.3480769,8.31923077 10.8115385,7.82307692 10.8115385,7.16538462 Z M10.8923077,9.225 L13.0961538,9.225 L13.0961538,17.5384615 L10.8923077,17.5384615 L10.8923077,9.225 Z" id="Shape" fill="#000000"></path>
                    <path d="M12,1.61538462 C14.775,1.61538462 17.3826923,2.69423077 19.3442308,4.65576923 C21.3057692,6.61730769 22.3846154,9.225 22.3846154,12 C22.3846154,14.775 21.3057692,17.3826923 19.3442308,19.3442308 C17.3826923,21.3057692 14.775,22.3846154 12,22.3846154 C9.225,22.3846154 6.61730769,21.3057692 4.65576923,19.3442308 C2.69423077,17.3826923 1.61538462,14.775 1.61538462,12 C1.61538462,9.225 2.69423077,6.61730769 4.65576923,4.65576923 C6.61730769,2.69423077 9.225,1.61538462 12,1.61538462 Z M12,0 C5.37115385,0 0,5.37115385 0,12 C0,18.6288462 5.37115385,24 12,24 C18.6288462,24 24,18.6288462 24,12 C24,5.37115385 18.6288462,0 12,0 Z" id="Shape" fill="#276EF1"></path>
                </g>
            </g>
        </g>
    </g>
</svg>